<?xml version="1.0" encoding="utf-8"?>
<!-- Generator: Adobe Illustrator 27.5.0, SVG Export Plug-In . SVG Version: 6.00 Build 0)  -->
<svg version="1.1" id="Layer_1" xmlns="http://www.w3.org/2000/svg" xmlns:xlink="http://www.w3.org/1999/xlink" x="0px" y="0px"
	 viewBox="0 0 1422 800" style="enable-background:new 0 0 1422 800;" xml:space="preserve">
<g>
	<defs>
		<rect id="SVGID_1_" width="1422" height="800"/>
	</defs>
	<clipPath id="SVGID_00000035520736431826253810000010882181434315147915_">
		<use xlink:href="#SVGID_1_"  style="overflow:visible;"/>
	</clipPath>
	<g style="clip-path:url(#SVGID_00000035520736431826253810000010882181434315147915_);">
		
			<rect x="1205.301" y="0" transform="matrix(0.7071 -0.7071 0.7071 0.7071 361.3088 874.2767)" style="fill:#231F20;" width="61.397" height="2"/>
		<polygon style="fill:#231F20;" points="1299,23.414 1341,-18.586 1381.586,22 1383,23.414 1384.414,22 1426.414,-20 1425,-21.414 
			1383,20.586 1342.414,-20 1341,-21.414 1339.586,-20 1297.586,22 		"/>
		<polygon style="fill:#231F20;" points="165,62.586 123,20.586 121.586,22 163.586,64 165,65.414 205.586,106 207,107.414 
			249,149.414 250.414,148 208.414,106 249,65.414 291,107.414 292.414,106 250.414,64 291,23.414 292.414,22 291,20.586 
			249,-21.414 247.586,-20 289.586,22 249,62.586 247.586,64 207,104.586 166.414,64 207,23.414 208.414,22 207,20.586 165,-21.414 
			163.586,-20 205.586,22 		"/>
		<polygon style="fill:#231F20;" points="205.586,64 207,65.414 249,23.414 250.414,22 249,20.586 207,-21.414 205.586,-20 
			247.586,22 		"/>
		<polygon style="fill:#231F20;" points="331.586,64 333,65.414 375,23.414 376.414,22 375,20.586 333,-21.414 331.586,-20 
			373.586,22 		"/>
		<polygon style="fill:#231F20;" points="543,62.586 541.586,64 543,65.414 583.586,106 541.586,148 543,149.414 585,107.414 
			586.414,106 585,104.586 544.414,64 586.414,22 586.414,22 628.414,-20 627,-21.414 583.586,22 		"/>
		<polygon style="fill:#231F20;" points="667.586,22 625.586,64 627,65.414 669,23.414 670.414,22 712.414,-20 711,-21.414 
			669,20.586 		"/>
		<path style="fill:#231F20;" d="M835.586,22L795,62.586L793.586,64l-42,42l1.414,1.414l42-42L835.586,106L795,146.586L793.586,148
			L753,188.586L751.586,190l1.414,1.414L793.586,232l1.414,1.414l1.414-1.414L837,191.414l1.414-1.414L879,149.414l1.414-1.414
			L921,107.414l1.414-1.414L921,104.586L880.414,64L879,62.586L877.586,64L837,104.586L796.414,64L837,23.414L838.414,22L879-18.586
			L919.586,22L921,23.414l42,42L964.414,64l-42-42l42-42L963-21.414l-42,42L880.414-20L879-21.414L877.586-20L837,20.586L835.586,22
			z M795,230.586L754.414,190L795,149.414L835.586,190L795,230.586z M838.414,106L879,65.414L919.586,106L879,146.586L877.586,148
			L837,188.586L796.414,148L837,107.414L838.414,106z"/>
		<path style="fill:#231F20;" d="M1089,62.586L1087.586,64L1047,104.586l-1.414,1.414l1.414,1.414L1087.586,148L1047,188.586
			l-1.414,1.414L1005,230.586l-1.414,1.414L963,272.586L961.586,274l-42,42l1.414,1.414l42-42L1003.586,316l-42,42l1.414,1.414
			l42-42l1.414-1.414L1047,275.414l1.414-1.414L1089,233.414l42,42l1.414-1.414l-42-42l-1.414-1.414L1048.414,190L1089,149.414
			L1129.586,190l1.414,1.414L1171.586,232l1.414,1.414L1213.586,274l1.414,1.414l42,42l1.414-1.414l-42-42l-1.414-1.414
			L1174.414,232l-1.414-1.414L1132.414,190l-1.414-1.414L1090.414,148L1131,107.414l1.414-1.414l42-42L1173,62.586l-42,42
			L1090.414,64L1131,23.414l1.414-1.414l42-42L1173-21.414l-42,42l-42-42L1087.586-20l42,42L1089,62.586z M1087.586,232
			L1047,272.586l-1.414,1.414L1005,314.586L964.414,274L1005,233.414l1.414-1.414L1047,191.414L1087.586,232z M1129.586,106
			L1089,146.586L1048.414,106L1089,65.414L1129.586,106z"/>
		<path style="fill:#231F20;" d="M1383,62.586L1342.414,22L1341,20.586L1339.586,22L1299,62.586L1258.414,22l42-42L1299-21.414
			l-42,42L1255.586,22L1215,62.586L1174.414,22l42-42L1215-21.414l-42,42L1171.586,22l-42,42l1.414,1.414l42-42L1213.586,64
			L1173,104.586l-1.414,1.414L1131,146.586l-1.414,1.414l1.414,1.414L1171.586,190l1.414,1.414L1213.586,232l1.414,1.414
			L1255.586,274l1.414,1.414L1297.586,316L1257,356.586L1216.414,316l-1.414-1.414L1174.414,274l-1.414-1.414L1132.414,232
			l-1.414-1.414l-42-42l-1.414,1.414l42,42l1.414,1.414L1171.586,274L1131,314.586L1090.414,274l-1.414-1.414l-1.414,1.414
			L1047,314.586l-1.414,1.414L1005,356.586l-1.414,1.414L963,398.586L922.414,358l42-42L963,314.586l-42,42L880.414,316L921,275.414
			l1.414-1.414L963,233.414l1.414-1.414L1005,191.414l1.414-1.414L1047,149.414l1.414-1.414l-1.414-1.414L1006.414,106L1047,65.414
			l1.414-1.414L1089,23.414l1.414-1.414L1089,20.586l-42-42L1045.586-20l42,42L1047,62.586L1045.586,64L1005,104.586l-1.414,1.414
			L963,146.586L961.586,148l1.414,1.414L1003.586,190L963,230.586L961.586,232L921,272.586L919.586,274L879,314.586L877.586,316
			L837,356.586L835.586,358L795,398.586L754.414,358L753,356.586L751.586,358L711,398.586L670.414,358L711,317.414l1.414-1.414
			L753,275.414l42,42l1.414-1.414l-42-42L753,272.586L712.414,232L711,230.586L709.586,232l-42,42l1.414,1.414l42-42L751.586,274
			L711,314.586L709.586,316L669,356.586L628.414,316l-42-42l42-42l42-42L669,188.586l-42,42L586.414,190l0,0L585,188.586
			L583.586,190L543,230.586L541.586,232L501,272.586L499.586,274L459,314.586L457.586,316L417,356.586L415.586,358L375,398.586
			L334.414,358L333,356.586L331.586,358L291,398.586L289.586,400L249,440.586L208.414,400L249,359.414l1.414-1.414L249,356.586
			l-42-42L205.586,316l42,42L207,398.586L166.414,358L165,356.586l-42-42L121.586,316l42,42l1.414,1.414L205.586,400l1.414,1.414
			L247.586,442l1.414,1.414l1.414-1.414L291,401.414l1.414-1.414L333,359.414L373.586,400l1.414,1.414L415.586,442L375,482.586
			L373.586,484l-42,42l1.414,1.414l42-42l1.414-1.414L417,443.414l1.414-1.414L459,401.414L499.586,442L459,482.586L457.586,484
			L417,524.586L415.586,526l-42,42l1.414,1.414l42-42l1.414-1.414L459,485.414L499.586,526L459,566.586L457.586,568l-42,42
			l1.414,1.414l42-42L499.586,610l-42,42l1.414,1.414l42-42l1.414-1.414L543,569.414l1.414-1.414L585,527.414L625.586,568l-42,42
			L543,650.586L541.586,652l1.414,1.414L583.586,694L543,734.586l-42-42L499.586,694l42,42L501,776.586L499.586,778l-42,42
			l1.414,1.414l42-42l1.414-1.414L543,737.414l1.414-1.414L585,695.414l1.414-1.414l0,0l42-42L669,611.414L709.586,652L669,692.586
			L667.586,694L627,734.586L625.586,736l1.414,1.414l42,42l1.414-1.414l-42-42L669,695.414l1.414-1.414L711,653.414L751.586,694
			l1.414,1.414l1.414-1.414L795,653.414l1.414-1.414L795,650.586L754.414,610L795,569.414l42,42l1.414-1.414l-42-42L837,527.414
			L877.586,568l1.414,1.414l1.414-1.414L921,527.414L961.586,568L921,608.586L919.586,610l1.414,1.414L961.586,652l-42,42
			l1.414,1.414l42-42l1.414-1.414L1005,611.414L1045.586,652l1.414,1.414l1.414-1.414L1089,611.414l1.414-1.414L1131,569.414
			l1.414-1.414l42-42l-1.414-1.414l-42,42L1090.414,526L1131,485.414l1.414-1.414L1173,443.414l1.414-1.414l-1.414-1.414
			L1132.414,400l-1.414-1.414L1090.414,358l-1.414-1.414l-1.414,1.414L1047,398.586L1006.414,358L1047,317.414l1.414-1.414
			L1089,275.414L1129.586,316l1.414,1.414l1.414-1.414L1173,275.414L1213.586,316l1.414,1.414L1255.586,358l1.414,1.414
			L1297.586,400l1.414,1.414l1.414-1.414L1341,359.414L1381.586,400L1341,440.586l-1.414,1.414L1299,482.586L1258.414,442
			l-1.414-1.414l-42-42l-1.414,1.414l42,42L1215,482.586l-1.414,1.414l1.414,1.414L1255.586,526L1215,566.586l-1.414,1.414
			l1.414,1.414L1255.586,610L1215,650.586l-1.414,1.414l-42,42l1.414,1.414l42-42l1.414-1.414L1257,611.414l1.414-1.414
			L1299,569.414l1.414-1.414l-1.414-1.414L1258.414,526L1299,485.414L1339.586,526l1.414,1.414l42,42l1.414-1.414l-42-42
			L1383,485.414l42,42l1.414-1.414l-42-42l42-42l-1.414-1.414l-42,42l-1.414,1.414L1341,524.586L1300.414,484L1341,443.414
			l1.414-1.414L1383,401.414l1.414-1.414l42-42l-1.414-1.414l-42,42L1342.414,358L1383,317.414l1.414-1.414l-1.414-1.414
			L1342.414,274L1383,233.414l1.414-1.414L1425,191.414l1.414-1.414l-1.414-1.414L1384.414,148l-1.414-1.414L1342.414,106
			L1383,65.414l1.414-1.414l42-42L1425,20.586L1383,62.586z M964.414,148L1005,107.414L1045.586,148L1005,188.586L964.414,148z
			 M879,317.414L919.586,358L879,398.586L838.414,358L879,317.414z M796.414,400L837,359.414L877.586,400l1.414,1.414l1.414-1.414
			L921,359.414L961.586,400L921,440.586L919.586,442L879,482.586L838.414,442L837,440.586L835.586,442L795,482.586L754.414,442
			L795,401.414L796.414,400z M712.414,400L753,359.414L793.586,400L753,440.586L751.586,442L711,482.586L709.586,484l1.414,1.414
			L751.586,526L711,566.586L670.414,526L669,524.586L628.414,484L669,443.414l1.414-1.414L711,401.414L712.414,400z M501,275.414
			L541.586,316L501,356.586L460.414,316L501,275.414z M543,317.414L583.586,358L543,398.586L502.414,358L543,317.414z M417,440.586
			L376.414,400L417,359.414L457.586,400L417,440.586z M460.414,400L459,398.586L418.414,358L459,317.414L499.586,358l1.414,1.414
			L541.586,400L501,440.586L460.414,400z M543,566.586L541.586,568L501,608.586L460.414,568L501,527.414l1.414-1.414L501,524.586
			L460.414,484L501,443.414l1.414-1.414L543,401.414l1.414-1.414L585,359.414l1.414-1.414L585,356.586L544.414,316L543,314.586
			L502.414,274L543,233.414l1.414-1.414L585,191.414L625.586,232l0,0l0,0l-42,42l42,42l0,0l42,42l1.414,1.414L709.586,400
			L669,440.586L667.586,442L627,482.586L625.586,484l0,0L585,524.586L544.414,484l42-42l0,0l42-42L627,398.586L583.586,442
			L543,482.586L541.586,484l1.414,1.414L583.586,526L543,566.586z M879,566.586L838.414,526L837,524.586L835.586,526L795,566.586
			L793.586,568L753,608.586L751.586,610l1.414,1.414L793.586,652L753,692.586L712.414,652L711,650.586L670.414,610L669,608.586
			L667.586,610l-42,42l0,0L585,692.586L544.414,652l42-42l0,0l42-42l-42-42l0,0l0,0L627,485.414L667.586,526l1.414,1.414
			L709.586,568l1.414,1.414l1.414-1.414L753,527.414l1.414-1.414L753,524.586L712.414,484L753,443.414L793.586,484l1.414,1.414
			l1.414-1.414L837,443.414L877.586,484l1.414,1.414L919.586,526L879,566.586z M1089,524.586l-1.414,1.414l1.414,1.414L1129.586,568
			L1089,608.586l-1.414,1.414L1047,650.586L1006.414,610L1047,569.414l1.414-1.414l-1.414-1.414L1006.414,526L1047,485.414
			l1.414-1.414L1089,443.414L1129.586,484L1089,524.586z M1045.586,400l1.414,1.414l1.414-1.414L1089,359.414L1129.586,400
			l1.414,1.414L1171.586,442L1131,482.586L1090.414,442l-1.414-1.414l-1.414,1.414L1047,482.586l-1.414,1.414L1005,524.586
			l-1.414,1.414l1.414,1.414L1045.586,568L1005,608.586l-1.414,1.414L963,650.586L922.414,610L963,569.414l1.414-1.414L963,566.586
			L922.414,526L921,524.586L880.414,484L921,443.414l1.414-1.414L963,401.414l1.414-1.414L1005,359.414L1045.586,400z M1297.586,568
			L1257,608.586L1216.414,568L1257,527.414L1297.586,568z M1257,524.586L1216.414,484L1257,443.414L1297.586,484L1257,524.586z
			 M1132.414,148L1173,107.414l1.414-1.414L1215,65.414l1.414-1.414L1257,23.414L1297.586,64L1257,104.586l-1.414,1.414
			L1215,146.586l-1.414,1.414L1173,188.586L1132.414,148z M1174.414,190L1215,149.414l1.414-1.414L1257,107.414l1.414-1.414
			L1299,65.414L1339.586,106L1299,146.586l-1.414,1.414L1257,188.586l-1.414,1.414L1215,230.586L1174.414,190z M1258.414,274
			L1299,233.414L1339.586,274L1299,314.586L1258.414,274z M1299,398.586L1258.414,358L1299,317.414L1339.586,358L1299,398.586z
			 M1381.586,316L1341,356.586L1300.414,316L1341,275.414L1381.586,316z M1381.586,148l1.414,1.414L1423.586,190L1383,230.586
			l-1.414,1.414L1341,272.586L1300.414,232l42-42l-1.414-1.414l-42,42l-1.414,1.414L1257,272.586L1216.414,232L1257,191.414
			l1.414-1.414L1299,149.414l1.414-1.414L1341,107.414L1381.586,148z M1341,104.586L1300.414,64L1341,23.414L1381.586,64
			L1341,104.586z"/>
		
			<rect x="101" y="54.302" transform="matrix(0.7071 -0.7071 0.7071 0.7071 -30.2289 97.021)" style="fill:#231F20;" width="2" height="61.397"/>
		<polygon style="fill:#231F20;" points="711,65.414 712.414,64 754.414,22 753,20.586 711,62.586 709.586,64 667.586,106 
			669,107.414 		"/>
		<polygon style="fill:#231F20;" points="1425,62.586 1383,104.586 1381.586,106 1383,107.414 1425,149.414 1426.414,148 
			1384.414,106 1426.414,64 		"/>
		<polygon style="fill:#231F20;" points="-3,149.414 39,107.414 40.414,106 39,104.586 -1.586,64 39,23.414 40.414,22 82.414,-20 
			81,-21.414 39,20.586 -3,-21.414 -4.414,-20 37.586,22 -3,62.586 -4.414,64 -3,65.414 37.586,106 -4.414,148 		"/>
		
			<rect x="827.301" y="126" transform="matrix(0.7071 -0.7071 0.7071 0.7071 161.4998 643.8949)" style="fill:#231F20;" width="61.397" height="2"/>
		<polygon style="fill:#231F20;" points="1216.414,106 1258.414,64 1257,62.586 1215,104.586 1213.586,106 1171.586,148 
			1173,149.414 1215,107.414 		"/>
		<polygon style="fill:#231F20;" points="1258.414,148 1300.414,106 1299,104.586 1257,146.586 1255.586,148 1213.586,190 
			1215,191.414 1257,149.414 		"/>
		<path style="fill:#231F20;" d="M39,233.414L40.414,232l-42-42L39,149.414l42,42L82.414,190l-42-42L81,107.414L121.586,148
			l1.414,1.414L163.586,190L123,230.586L121.586,232l1.414,1.414l42,42l1.414-1.414l-42-42L165,191.414l1.414-1.414L207,149.414
			L247.586,190l-42,42l1.414,1.414l42-42l1.414-1.414L291,149.414L331.586,190L291,230.586L289.586,232l1.414,1.414L331.586,274
			l1.414,1.414L373.586,316l1.414,1.414l1.414-1.414L417,275.414l1.414-1.414L417,272.586L376.414,232L417,191.414L457.586,232
			l1.414,1.414l1.414-1.414l42-42L501,188.586l-42,42L418.414,190L459,149.414l1.414-1.414l42-42L501,104.586l-42,42l-42-42
			L415.586,106l42,42L417,188.586L376.414,148L375,146.586L334.414,106L375,65.414L376.414,64L417,23.414L418.414,22L459-18.586
			L499.586,22l-42,42L459,65.414l42-42L502.414,22l42-42L543-21.414l-42,42L460.414-20L459-21.414L457.586-20L417,20.586l-42-42
			L373.586-20l42,42L375,62.586L373.586,64L333,104.586L292.414,64L333,23.414L334.414,22L333,20.586l-42-42L289.586-20l42,42
			L291,62.586L289.586,64L291,65.414L331.586,106L291,146.586l-42-42L247.586,106l42,42L249,188.586L208.414,148L207,146.586
			L166.414,106L165,104.586L124.414,64L123,62.586L82.414,22L123-18.586l42,42L166.414,22l-42-42L123-21.414L121.586-20L81,20.586
			L79.586,22L39,62.586L37.586,64L39,65.414L79.586,106L39,146.586L37.586,148L-3,188.586L-4.414,190L-3,191.414L39,233.414z
			 M292.414,232L333,191.414L373.586,232L333,272.586L292.414,232z M415.586,274L375,314.586L334.414,274L375,233.414L415.586,274z
			 M415.586,190L375,230.586L334.414,190L375,149.414L415.586,190z M333,107.414L373.586,148L333,188.586L292.414,148L333,107.414z
			 M205.586,148L165,188.586L124.414,148L165,107.414L205.586,148z M40.414,64L81,23.414L121.586,64L123,65.414L163.586,106
			L123,146.586L82.414,106L81,104.586L40.414,64z"/>
		<polygon style="fill:#231F20;" points="1297.586,190 1255.586,232 1257,233.414 1299,191.414 1300.414,190 1341,149.414 
			1381.586,190 1339.586,232 1341,233.414 1383,191.414 1384.414,190 1383,188.586 1342.414,148 1341,146.586 1339.586,148 
			1299,188.586 		"/>
		
			<rect x="827.301" y="252" transform="matrix(0.7071 -0.7071 0.7071 0.7071 72.4043 680.7994)" style="fill:#231F20;" width="61.397" height="2"/>
		
			<rect x="995.301" y="252" transform="matrix(0.7071 -0.7071 0.7071 0.7071 121.6104 799.5934)" style="fill:#231F20;" width="61.397" height="2"/>
		<polygon style="fill:#231F20;" points="1425,230.586 1383,272.586 1381.586,274 1383,275.414 1423.586,316 1381.586,358 
			1383,359.414 1425,317.414 1426.414,316 1425,314.586 1384.414,274 1426.414,232 		"/>
		<polygon style="fill:#231F20;" points="39,317.414 40.414,316 82.414,274 81,272.586 39,314.586 -3,272.586 -4.414,274 
			37.586,316 		"/>
		
			<rect x="269" y="264.302" transform="matrix(0.7071 -0.7071 0.7071 0.7071 -129.5153 277.3225)" style="fill:#231F20;" width="2" height="61.397"/>
		
			<rect x="479" y="348.302" transform="matrix(0.7071 -0.7071 0.7071 0.7071 -127.4047 450.418)" style="fill:#231F20;" width="2" height="61.397"/>
		<polygon style="fill:#231F20;" points="-3,443.414 39,401.414 40.414,400 39,398.586 -3,356.586 -4.414,358 37.586,400 
			-4.414,442 		"/>
		<polygon style="fill:#231F20;" points="795,443.414 837,401.414 877.586,442 879,443.414 880.414,442 922.414,400 921,398.586 
			879,440.586 838.414,400 837,398.586 835.586,400 793.586,442 		"/>
		<polygon style="fill:#231F20;" points="124.414,484 82.414,442 123,401.414 124.414,400 123,398.586 81,356.586 79.586,358 
			121.586,400 81,440.586 79.586,442 81,443.414 123,485.414 		"/>
		
			<rect x="281.302" y="462" transform="matrix(0.7071 -0.7071 0.7071 0.7071 -236.0077 356.2271)" style="fill:#231F20;" width="61.397" height="2"/>
		<polygon style="fill:#231F20;" points="709.586,442 669,482.586 667.586,484 669,485.414 711,527.414 712.414,526 670.414,484 
			711,443.414 712.414,442 754.414,400 753,398.586 711,440.586 		"/>
		<path style="fill:#231F20;" d="M961.586,442L921,482.586L919.586,484l1.414,1.414L961.586,526l1.414,1.414L1003.586,568l-42,42
			l1.414,1.414l42-42l1.414-1.414l-1.414-1.414L964.414,526L1005,485.414l1.414-1.414L1047,443.414l1.414-1.414L1089,401.414l42,42
			l1.414-1.414l-42-42l-1.414-1.414l-1.414,1.414L1047,440.586L1006.414,400l-1.414-1.414l-1.414,1.414L963,440.586L961.586,442z
			 M1005,401.414L1045.586,442L1005,482.586l-1.414,1.414L963,524.586L922.414,484L963,443.414l1.414-1.414L1005,401.414z"/>
		
			<rect x="953.301" y="462" transform="matrix(0.7071 -0.7071 0.7071 0.7071 -39.1836 831.4025)" style="fill:#231F20;" width="61.397" height="2"/>
		<polygon style="fill:#231F20;" points="1381.586,442 1339.586,484 1341,485.414 1383,443.414 1384.414,442 1426.414,400 
			1425,398.586 1383,440.586 		"/>
		
			<rect x="-12.698" y="504" transform="matrix(0.7071 -0.7071 0.7071 0.7071 -351.8168 160.6392)" style="fill:#231F20;" width="61.397" height="2"/>
		<polygon style="fill:#231F20;" points="502.414,484 543,443.414 544.414,442 586.414,400 586.414,400 627,359.414 667.586,400 
			625.586,442 625.586,442 583.586,484 585,485.414 628.414,442 669,401.414 670.414,400 669,398.586 628.414,358 586.414,316 
			586.414,316 544.414,274 586.414,232 585,230.586 543,272.586 541.586,274 543,275.414 583.586,316 625.586,358 625.586,358 
			625.586,358 583.586,400 543,440.586 541.586,442 501,482.586 499.586,484 501,485.414 541.586,526 499.586,568 501,569.414 
			543,527.414 544.414,526 543,524.586 		"/>
		<polygon style="fill:#231F20;" points="837,482.586 835.586,484 795,524.586 753,482.586 751.586,484 793.586,526 753,566.586 
			751.586,568 711,608.586 670.414,568 669,566.586 627,524.586 625.586,526 667.586,568 625.586,610 625.586,610 583.586,652 
			585,653.414 628.414,610 669,569.414 709.586,610 711,611.414 753,653.414 754.414,652 712.414,610 753,569.414 754.414,568 
			795,527.414 796.414,526 837,485.414 879,527.414 880.414,526 838.414,484 		"/>
		<polygon style="fill:#231F20;" points="1047,524.586 1045.586,526 1047,527.414 1087.586,568 1045.586,610 1047,611.414 
			1089,569.414 1090.414,568 1089,566.586 1048.414,526 1090.414,484 1089,482.586 		"/>
		<polygon style="fill:#231F20;" points="205.586,568 207,569.414 208.414,568 249,527.414 250.414,526 249,524.586 208.414,484 
			207,482.586 165,440.586 163.586,442 205.586,484 207,485.414 247.586,526 207,566.586 166.414,526 165,524.586 163.586,526 
			123,566.586 82.414,526 81,524.586 79.586,526 37.586,568 39,569.414 81,527.414 121.586,568 123,569.414 124.414,568 
			165,527.414 		"/>
		<path style="fill:#231F20;" d="M1383,524.586l-1.414,1.414l42,42L1383,608.586L1342.414,568l-1.414-1.414l-42-42l-1.414,1.414
			l42,42L1299,608.586l-1.414,1.414L1257,650.586l-1.414,1.414L1215,692.586l-1.414,1.414L1173,734.586L1132.414,694L1173,653.414
			l1.414-1.414L1215,611.414l1.414-1.414l-1.414-1.414L1174.414,568L1215,527.414l1.414-1.414l-1.414-1.414L1174.414,484
			L1215,443.414l1.414-1.414l-1.414-1.414L1174.414,400L1215,359.414L1255.586,400l1.414,1.414L1297.586,442l1.414,1.414
			l1.414-1.414l42-42l-1.414-1.414l-42,42L1258.414,400l-1.414-1.414L1216.414,358l-1.414-1.414L1174.414,316l-1.414-1.414
			l-1.414,1.414L1131,356.586L1090.414,316l-1.414-1.414l-1.414,1.414l-42,42l1.414,1.414l42-42L1129.586,358l1.414,1.414
			L1171.586,400l1.414,1.414L1213.586,442L1173,482.586l-1.414,1.414l-42,42l1.414,1.414l42-42L1213.586,526L1173,566.586
			l-1.414,1.414L1131,608.586l-1.414,1.414L1089,650.586l-1.414,1.414L1047,692.586L1006.414,652l-1.414-1.414l-1.414,1.414
			L963,692.586L961.586,694L921,734.586L880.414,694L921,653.414l1.414-1.414L921,650.586L880.414,610l42-42L921,566.586l-42,42
			l-42-42L835.586,568l42,42L837,650.586l-42-42L793.586,610l42,42L795,692.586L793.586,694L753,734.586L712.414,694L711,692.586
			L709.586,694L669,734.586L667.586,736l1.414,1.414L709.586,778L669,818.586L628.414,778l-42-42l0,0l0,0l42-42l42-42L669,650.586
			L625.586,694l0,0l-42,42L543,776.586L541.586,778l-42,42l1.414,1.414l42-42l1.414-1.414L585,737.414L625.586,778l0,0l0,0l-42,42
			l1.414,1.414l42-42L667.586,820l1.414,1.414l1.414-1.414L711,779.414L751.586,820l1.414,1.414l1.414-1.414l42-42L795,776.586
			l-42,42L712.414,778L753,737.414l1.414-1.414L795,695.414l42,42l1.414-1.414l-42-42L837,653.414l1.414-1.414L879,611.414
			L919.586,652L879,692.586L877.586,694l1.414,1.414L919.586,736L879,776.586L877.586,778l-42,42l1.414,1.414l42-42l42,42
			l1.414-1.414l-42-42L921,737.414l1.414-1.414L963,695.414l1.414-1.414L1005,653.414L1045.586,694l1.414,1.414L1087.586,736
			L1047,776.586L1006.414,736l-1.414-1.414l-1.414,1.414L963,776.586L961.586,778l1.414,1.414l42,42l1.414-1.414l-42-42
			L1005,737.414L1045.586,778l1.414,1.414l42,42l1.414-1.414l-42-42L1089,737.414l1.414-1.414l-1.414-1.414L1048.414,694
			L1089,653.414L1129.586,694l1.414,1.414L1171.586,736l-42,42l1.414,1.414l42-42L1213.586,778l1.414,1.414l42,42l1.414-1.414
			l-42-42L1257,737.414l1.414-1.414L1299,695.414L1339.586,736l1.414,1.414L1381.586,778L1341,818.586l-42-42l-1.414,1.414l42,42
			l1.414,1.414l1.414-1.414L1383,779.414l1.414-1.414l-1.414-1.414L1342.414,736l-1.414-1.414L1300.414,694L1341,653.414l42,42
			l1.414-1.414l-42-42L1383,611.414l1.414-1.414L1425,569.414l1.414-1.414l-1.414-1.414L1383,524.586z M1132.414,358L1173,317.414
			L1213.586,358L1173,398.586L1132.414,358z M711,776.586L670.414,736L711,695.414L751.586,736L711,776.586z M1173,569.414
			L1213.586,610L1173,650.586L1132.414,610L1173,569.414z M1090.414,652L1131,611.414L1171.586,652L1131,692.586L1090.414,652z
			 M1215,776.586L1174.414,736L1215,695.414L1255.586,736L1215,776.586z M1299,692.586l-1.414,1.414L1257,734.586L1216.414,694
			L1257,653.414l1.414-1.414L1299,611.414L1339.586,652L1299,692.586z M1341,650.586L1300.414,610L1341,569.414L1381.586,610
			L1341,650.586z"/>
		<polygon style="fill:#231F20;" points="165,611.414 205.586,652 207,653.414 208.414,652 249,611.414 250.414,610 292.414,568 
			291,566.586 249,608.586 247.586,610 207,650.586 166.414,610 165,608.586 163.586,610 123,650.586 121.586,652 123,653.414 
			163.586,694 123,734.586 121.586,736 81,776.586 39,734.586 37.586,736 79.586,778 81,779.414 82.414,778 123,737.414 
			124.414,736 165,695.414 166.414,694 165,692.586 124.414,652 		"/>
		<path style="fill:#231F20;" d="M334.414,610L333,608.586L331.586,610L291,650.586L289.586,652l-42,42l1.414,1.414l42-42
			L331.586,694l1.414,1.414l1.414-1.414L375,653.414l1.414-1.414L375,650.586L334.414,610z M333,692.586L292.414,652L333,611.414
			L373.586,652L333,692.586z"/>
		<polygon style="fill:#231F20;" points="1425,608.586 1383,650.586 1381.586,652 1383,653.414 1423.586,694 1383,734.586 
			1341,692.586 1339.586,694 1381.586,736 1383,737.414 1423.586,778 1381.586,820 1383,821.414 1425,779.414 1426.414,778 
			1425,776.586 1384.414,736 1425,695.414 1426.414,694 1425,692.586 1384.414,652 1426.414,610 		"/>
		<polygon style="fill:#231F20;" points="39,653.414 81,695.414 82.414,694 40.414,652 82.414,610 81,608.586 39,650.586 
			37.586,652 -4.414,694 -3,695.414 		"/>
		
			<rect x="1247.301" y="672" transform="matrix(0.7071 -0.7071 0.7071 0.7071 -101.5654 1100.7994)" style="fill:#231F20;" width="61.397" height="2"/>
		<polygon style="fill:#231F20;" points="375,737.414 376.414,736 417,695.414 459,737.414 460.414,736 418.414,694 417,692.586 
			415.586,694 375,734.586 373.586,736 333,776.586 331.586,778 291,818.586 250.414,778 292.414,736 291,734.586 249,776.586 
			247.586,778 205.586,820 207,821.414 249,779.414 289.586,820 291,821.414 292.414,820 333,779.414 375,821.414 376.414,820 
			334.414,778 		"/>
		<polygon style="fill:#231F20;" points="963,737.414 964.414,736 1005,695.414 1047,737.414 1048.414,736 1006.414,694 
			1005,692.586 1003.586,694 963,734.586 961.586,736 921,776.586 919.586,778 921,779.414 963,821.414 964.414,820 922.414,778 		
			"/>
		<polygon style="fill:#231F20;" points="1299,737.414 1341,779.414 1342.414,778 1300.414,736 1299,734.586 1297.586,736 
			1257,776.586 1255.586,778 1257,779.414 1299,821.414 1300.414,820 1258.414,778 		"/>
		
			<rect x="17" y="768.302" transform="matrix(0.7071 -0.7071 0.7071 0.7071 -559.7062 246.7498)" style="fill:#231F20;" width="2" height="61.397"/>
		<polygon style="fill:#231F20;" points="166.414,778 208.414,736 207,734.586 165,776.586 163.586,778 121.586,820 123,821.414 
			165,779.414 		"/>
		<path style="fill:#231F20;" d="M460.414,778L501,737.414l1.414-1.414L501,734.586L460.414,694L501,653.414l42,42l1.414-1.414
			l-42-42L543,611.414l1.414-1.414l42-42L585,566.586l-42,42L541.586,610L501,650.586L499.586,652L459,692.586L418.414,652l42-42
			L459,608.586l-42,42L376.414,610L417,569.414l1.414-1.414l42-42L459,524.586l-42,42L415.586,568L375,608.586L334.414,568
			L375,527.414l1.414-1.414L417,485.414l1.414-1.414l42-42L459,440.586l-42,42L415.586,484L375,524.586L373.586,526L333,566.586
			L292.414,526L333,485.414l1.414-1.414L375,443.414l1.414-1.414L375,440.586L334.414,400L333,398.586L331.586,400L291,440.586
			L289.586,442L249,482.586L208.414,442L207,440.586L166.414,400L165,398.586L124.414,358L123,356.586L82.414,316L123,275.414
			L163.586,316l1.414,1.414l42,42l1.414-1.414l-42-42L207,275.414L247.586,316l1.414,1.414L289.586,358l-42,42l1.414,1.414l42-42
			l1.414-1.414L333,317.414L373.586,358l1.414,1.414l1.414-1.414L417,317.414l1.414-1.414L459,275.414l1.414-1.414L501,233.414
			l1.414-1.414L543,191.414l1.414-1.414L585,149.414L625.586,190l0,0l1.414,1.414l1.414-1.414L669,149.414L709.586,190L669,230.586
			L667.586,232L627,272.586L625.586,274l1.414,1.414L667.586,316l1.414,1.414l1.414-1.414l42-42L711,272.586l-42,42L628.414,274
			L669,233.414l1.414-1.414L711,191.414L751.586,232l1.414,1.414L793.586,274l1.414,1.414L835.586,316L795,356.586L754.414,316
			L753,314.586L751.586,316l-42,42l1.414,1.414l42-42L793.586,358l1.414,1.414l1.414-1.414L837,317.414l1.414-1.414L879,275.414
			l1.414-1.414L921,233.414l1.414-1.414L963,191.414l1.414-1.414L963,188.586L922.414,148L963,107.414l1.414-1.414L1005,65.414
			l1.414-1.414L1047,23.414l1.414-1.414L1047,20.586L1006.414-20L1005-21.414L1003.586-20L963,20.586L961.586,22L963,23.414
			L1003.586,64L963,104.586L922.414,64L921,62.586L880.414,22L879,20.586L877.586,22l-42,42L837,65.414l42-42L919.586,64L921,65.414
			L961.586,106L921,146.586L919.586,148L879,188.586L877.586,190L837,230.586L835.586,232L795,272.586L754.414,232L753,230.586
			L712.414,190L753,149.414l1.414-1.414l42-42L795,104.586l-42,42L712.414,106L753,65.414L754.414,64L795,23.414L796.414,22l42-42
			L837-21.414l-42,42L754.414-20L753-21.414L751.586-20L711,20.586L709.586,22L669,62.586L667.586,64L627,104.586L586.414,64l42-42
			l42-42L669-21.414L625.586,22l0,0l-42,42l42,42l0,0l0,0l-42,42L543,188.586L502.414,148L543,107.414l1.414-1.414L543,104.586
			L502.414,64L543,23.414L544.414,22l42-42L585-21.414l-42,42L541.586,22L501,62.586L499.586,64L459,104.586L418.414,64l42-42
			L459,20.586l-42,42L415.586,64L375,104.586L373.586,106l1.414,1.414l42,42l1.414-1.414l-42-42L417,65.414L457.586,106l1.414,1.414
			l1.414-1.414L501,65.414L541.586,106L501,146.586L499.586,148l-42,42l1.414,1.414l42-42L541.586,190L501,230.586L499.586,232
			L459,272.586l-42-42L415.586,232l42,42L417,314.586L415.586,316L375,356.586L334.414,316L333,314.586L292.414,274L291,272.586
			L250.414,232l42-42L291,188.586l-42,42L247.586,232L207,272.586L166.414,232l42-42L207,188.586l-42,42L163.586,232l1.414,1.414
			L205.586,274L165,314.586L124.414,274L123,272.586L82.414,232L123,191.414l1.414-1.414L123,188.586l-42-42L79.586,148l42,42
			L81,230.586l-42-42L37.586,190l42,42L39,272.586l-42-42L-4.414,232l42,42L39,275.414L40.414,274L81,233.414L121.586,274
			L81,314.586L79.586,316L39,356.586l-42-42L-4.414,316l42,42L39,359.414L79.586,400L39,440.586L37.586,442l-42,42L-3,485.414l42-42
			L79.586,484L39,524.586L37.586,526L-3,566.586L-4.414,568L-3,569.414L37.586,610l-42,42L-3,653.414l42-42L40.414,610L81,569.414
			L121.586,610L81,650.586L79.586,652L81,653.414L121.586,694L81,734.586L40.414,694L39,692.586L37.586,694L-3,734.586L-4.414,736
			L-3,737.414L37.586,778L39,779.414L79.586,820L81,821.414L82.414,820L123,779.414l1.414-1.414L165,737.414l1.414-1.414
			L207,695.414L247.586,736L207,776.586L205.586,778l-42,42l1.414,1.414l42-42l1.414-1.414L249,737.414l1.414-1.414L291,695.414
			L331.586,736l-42,42l1.414,1.414l42-42l1.414-1.414L375,695.414l1.414-1.414L417,653.414L457.586,694l1.414,1.414L499.586,736
			L459,776.586L418.414,736L417,734.586L415.586,736L375,776.586L373.586,778l1.414,1.414L415.586,820l1.414,1.414l1.414-1.414
			L459,779.414L460.414,778z M964.414,22L1005-18.586L1045.586,22L1005,62.586L964.414,22z M921,149.414L961.586,190L921,230.586
			L880.414,190L921,149.414z M837,233.414l1.414-1.414L879,191.414L919.586,232L879,272.586L877.586,274L837,314.586L796.414,274
			L837,233.414z M627,188.586L586.414,148l0,0l0,0L627,107.414L667.586,148L627,188.586z M751.586,148L711,188.586L670.414,148
			L711,107.414L751.586,148z M669,65.414L670.414,64L711,23.414L712.414,22L753-18.586L793.586,22L753,62.586L751.586,64
			L711,104.586L709.586,106L669,146.586L628.414,106L669,65.414z M249,233.414L289.586,274l1.414,1.414L331.586,316L291,356.586
			L250.414,316L249,314.586L208.414,274L249,233.414z M291,443.414l1.414-1.414L333,401.414L373.586,442L333,482.586L331.586,484
			L291,524.586L250.414,484L291,443.414z M40.414,442L81,401.414L82.414,400L81,398.586L40.414,358L81,317.414L121.586,358
			l1.414,1.414L163.586,400L123,440.586L121.586,442l1.414,1.414L163.586,484L123,524.586L82.414,484L81,482.586L40.414,442z
			 M82.414,568L81,566.586L79.586,568L39,608.586L-1.586,568L39,527.414L40.414,526L81,485.414L121.586,526l1.414,1.414l1.414-1.414
			L165,485.414l42,42l1.414-1.414l-42-42L165,482.586L124.414,442L165,401.414L205.586,442l1.414,1.414L247.586,484l1.414,1.414
			L289.586,526L249,566.586L247.586,568L207,608.586L166.414,568L165,566.586L163.586,568L123,608.586L82.414,568z M165,734.586
			L163.586,736L123,776.586L121.586,778L81,818.586L40.414,778L39,776.586L-1.586,736L39,695.414L79.586,736L81,737.414L82.414,736
			L123,695.414l1.414-1.414L123,692.586L82.414,652L123,611.414l1.414-1.414L165,569.414L205.586,610l1.414,1.414l1.414-1.414
			L249,569.414l1.414-1.414L291,527.414L331.586,568L291,608.586L289.586,610L249,650.586L247.586,652L207,692.586l-42-42
			L163.586,652l42,42L165,734.586z M375,692.586L373.586,694L333,734.586L292.414,694L291,692.586L289.586,694L249,734.586
			L208.414,694L249,653.414l1.414-1.414L291,611.414l1.414-1.414L333,569.414L373.586,610l1.414,1.414L415.586,652L375,692.586z
			 M417,818.586L376.414,778L417,737.414L457.586,778L417,818.586z"/>
		
			<rect x="533.302" y="798" transform="matrix(0.7071 -0.7071 0.7071 0.7071 -399.7865 632.8301)" style="fill:#231F20;" width="61.397" height="2"/>
		<polygon style="fill:#231F20;" points="838.414,778 879,737.414 880.414,736 879,734.586 838.414,694 880.414,652 879,650.586 
			837,692.586 835.586,694 837,695.414 877.586,736 837,776.586 796.414,736 795,734.586 793.586,736 751.586,778 753,779.414 
			795,737.414 835.586,778 793.586,820 795,821.414 837,779.414 		"/>
		
			<rect x="1025" y="768.302" transform="matrix(0.7071 -0.7071 0.7071 0.7071 -264.4699 959.5131)" style="fill:#231F20;" width="2" height="61.397"/>
		<polygon style="fill:#231F20;" points="1173,776.586 1171.586,778 1131,818.586 1090.414,778 1131,737.414 1132.414,736 
			1131,734.586 1089,692.586 1087.586,694 1129.586,736 1089,776.586 1087.586,778 1089,779.414 1129.586,820 1131,821.414 
			1132.414,820 1173,779.414 1215,821.414 1216.414,820 1174.414,778 		"/>
	</g>
</g>
</svg>
